<?xml version="1.0" encoding="UTF-8"?>
<svg xmlns="http://www.w3.org/2000/svg" xmlns:xlink="http://www.w3.org/1999/xlink" width="387pt" height="160pt" viewBox="130.27 200.00 387.45 160.00" version="1.2"><title>Summit — Mountain Mark, White</title>
<g id="surface1">
<path style=" stroke:none;fill-rule:evenodd;fill:#FFFFFF;fill-opacity:1;" d="M 448.785156 352.644531 L 463.472656 352.644531 L 450.175781 337.734375 L 407.902344 306.90625 L 407.605469 307.230469 Z M 382.449219 352.644531 L 350.765625 269.132812 L 321.933594 258.578125 L 313.824219 213.582031 L 264.523438 281.207031 L 369.875 352.644531 Z M 307.648438 352.644531 L 267.320312 321.15625 L 248.257812 277.136719 L 184.871094 352.644531 Z M 418.9375 302.703125 L 415.386719 298.71875 L 412.472656 301.90625 Z M 420.613281 310.917969 L 426.964844 311.703125 L 423.199219 307.480469 L 414.402344 306.398438 Z M 433.859375 320.5625 L 434.988281 320.703125 L 431.222656 316.480469 L 427.648438 316.039062 Z M 259.8125 283.125 L 253.699219 278.980469 L 255.25 282.5625 Z M 258.917969 291.027344 L 274.246094 292.914062 L 267.476562 288.324219 L 257.199219 287.058594 Z M 262.582031 299.492188 L 288.679688 302.703125 L 281.910156 298.109375 L 260.863281 295.523438 Z M 266.25 307.957031 L 303.113281 312.492188 L 296.34375 307.898438 L 264.53125 303.988281 Z M 269.914062 316.417969 L 317.550781 322.28125 L 310.78125 317.6875 L 268.195312 312.449219 Z M 279.996094 325.671875 L 331.984375 332.070312 L 325.214844 327.476562 L 274.285156 321.210938 Z M 292.179688 335.183594 L 346.417969 341.859375 L 339.648438 337.265625 L 286.464844 330.722656 Z M 304.359375 344.699219 L 360.855469 351.648438 L 354.082031 347.054688 L 298.644531 340.234375 Z M 310.824219 349.746094 L 314.539062 352.644531 L 334.390625 352.644531 Z M 322.632812 219.839844 L 318.457031 215.238281 L 319.042969 218.476562 Z M 320.691406 227.625 L 334.40625 232.824219 L 328.882812 226.730469 L 319.917969 223.332031 Z M 322.339844 236.765625 L 346.175781 245.804688 L 340.652344 239.714844 L 321.566406 232.476562 Z M 323.988281 245.914062 L 357.949219 258.792969 L 352.425781 252.699219 L 323.214844 241.621094 Z M 325.636719 255.058594 L 353.847656 265.757812 L 354.078125 265.839844 L 354.078125 265.84375 L 369.722656 271.777344 L 364.199219 265.683594 L 324.863281 250.765625 Z M 357.855469 275.796875 L 381.496094 284.761719 L 375.972656 278.667969 L 356.082031 271.125 Z M 361.628906 285.746094 L 393.269531 297.746094 L 387.746094 291.652344 L 359.859375 281.078125 Z M 365.40625 295.699219 L 405.042969 310.730469 L 399.519531 304.640625 L 363.632812 291.03125 Z M 369.179688 305.652344 L 416.816406 323.714844 L 411.292969 317.625 L 367.410156 300.984375 Z M 372.957031 315.601562 L 428.589844 336.703125 L 423.066406 330.609375 L 371.183594 310.933594 Z M 376.730469 325.554688 L 440.375 349.699219 L 434.839844 343.59375 L 374.960938 320.886719 Z M 380.507812 335.503906 L 425.703125 352.644531 L 436.222656 352.644531 L 378.734375 330.835938 Z M 384.28125 345.457031 L 403.238281 352.644531 L 413.78125 352.644531 L 382.511719 340.789062 Z M 386.285156 350.742188 L 387.007812 352.644531 L 391.3125 352.644531 Z M 343.144531 236.136719 L 404.71875 304.046875 L 415.300781 292.214844 L 473.359375 356.875 L 469.453125 356.867188 L 179.042969 356.867188 L 175.796875 356.847656 L 248.445312 270.304688 L 261 278.820312 L 314.859375 204.945312 L 319.59375 210.164062 L 319.890625 210.277344 L 326.0625 217.140625 L 325.84375 217.058594 L 331.367188 223.152344 L 331.515625 223.207031 L 337.6875 230.070312 L 337.617188 230.042969 Z M 343.144531 236.136719 "/>
<path style=" stroke:none;fill-rule:evenodd;fill:#FFFFFF;fill-opacity:1;" d="M 466.121094 411.5 L 472.441406 411.5 L 472.441406 381.183594 L 502.726562 381.183594 L 502.726562 374.863281 L 435.804688 374.863281 L 435.804688 381.183594 L 466.121094 381.183594 Z M 420.207031 411.5 L 426.527344 411.5 L 426.527344 374.929688 L 420.207031 374.929688 Z M 404.609375 411.5 L 404.609375 385.816406 L 382.609375 408.445312 C 381.96875 409.074219 381.214844 409.390625 380.339844 409.390625 C 379.441406 409.390625 378.679688 409.074219 378.0625 408.445312 L 356.074219 385.816406 L 356.074219 411.5 L 349.753906 411.5 L 349.753906 378.027344 C 349.753906 376.625 350.414062 375.660156 351.726562 375.132812 C 353.019531 374.582031 354.175781 374.816406 355.175781 375.851562 L 380.339844 401.699219 L 405.496094 375.851562 C 406.484375 374.816406 407.628906 374.582031 408.941406 375.132812 C 410.265625 375.660156 410.917969 376.625 410.917969 378.027344 L 410.917969 411.5 Z M 409.996094 380.296875 L 410.03125 380.230469 C 410.007812 380.25 409.996094 380.273438 409.996094 380.296875 M 334.15625 411.5 L 334.15625 385.816406 L 312.15625 408.445312 C 311.515625 409.074219 310.761719 409.390625 309.886719 409.390625 C 308.992188 409.390625 308.226562 409.074219 307.609375 408.445312 L 285.621094 385.816406 L 285.621094 411.5 L 279.300781 411.5 L 279.300781 378.027344 C 279.300781 376.625 279.960938 375.660156 281.277344 375.132812 C 282.566406 374.582031 283.722656 374.816406 284.722656 375.851562 L 309.886719 401.699219 L 335.042969 375.851562 C 336.03125 374.816406 337.175781 374.582031 338.488281 375.132812 C 339.8125 375.660156 340.464844 376.625 340.464844 378.027344 L 340.464844 411.5 Z M 339.542969 380.296875 L 339.578125 380.230469 C 339.554688 380.25 339.542969 380.273438 339.542969 380.296875 M 217.839844 374.898438 L 211.519531 374.898438 L 211.519531 401.601562 C 211.519531 404.339844 212.484375 406.675781 214.414062 408.605469 C 216.347656 410.535156 218.679688 411.5 221.417969 411.5 L 260.121094 411.5 C 262.859375 411.5 265.195312 410.535156 267.125 408.605469 C 269.054688 406.675781 270.023438 404.339844 270.023438 401.601562 L 270.023438 374.898438 L 263.703125 374.898438 L 263.703125 401.601562 C 263.703125 402.589844 263.355469 403.429688 262.660156 404.136719 C 261.953125 404.832031 261.109375 405.179688 260.121094 405.179688 L 221.417969 405.179688 C 220.433594 405.179688 219.589844 404.832031 218.882812 404.136719 C 218.1875 403.429688 217.839844 402.589844 217.839844 401.601562 Z M 202.230469 374.863281 L 155.996094 374.863281 C 153.390625 374.863281 151.066406 375.683594 149.023438 377.300781 C 146.519531 379.273438 145.277344 382.046875 145.277344 385.617188 C 145.277344 388.253906 146.074219 390.578125 147.675781 392.585938 C 149.675781 395.089844 152.449219 396.335938 155.996094 396.335938 L 192.496094 396.335938 C 192.914062 396.359375 193.328125 396.414062 193.742188 396.503906 C 194.292969 396.640625 194.777344 396.828125 195.191406 397.101562 C 196.335938 397.839844 196.910156 399.074219 196.910156 400.78125 C 196.910156 401.195312 196.863281 401.601562 196.773438 401.992188 C 196.640625 402.566406 196.4375 403.058594 196.144531 403.476562 C 195.40625 404.617188 194.191406 405.179688 192.496094 405.179688 L 146.261719 405.179688 L 146.261719 411.5 L 192.496094 411.5 C 196.078125 411.5 198.851562 410.253906 200.816406 407.753906 C 202.421875 405.707031 203.21875 403.386719 203.21875 400.78125 C 203.21875 397.210938 201.972656 394.429688 199.46875 392.464844 C 197.457031 390.835938 195.136719 390.027344 192.496094 390.027344 L 155.996094 390.027344 C 154.3125 390.027344 153.085938 389.453125 152.347656 388.320312 C 152.066406 387.894531 151.863281 387.402344 151.753906 386.839844 C 151.652344 386.445312 151.59375 386.019531 151.59375 385.582031 C 151.59375 383.898438 152.15625 382.6875 153.300781 381.9375 C 153.738281 381.675781 154.234375 381.476562 154.78125 381.339844 C 155.175781 381.261719 155.589844 381.203125 156.027344 381.183594 L 202.230469 381.183594 Z M 202.230469 374.863281 "/>
<path style=" stroke:none;fill-rule:evenodd;fill:#FFFFFF;fill-opacity:1;" d="M 501.171875 432.03125 C 500.832031 431.648438 500.359375 431.320312 499.761719 431.046875 C 499.160156 430.773438 498.523438 430.636719 497.851562 430.636719 C 496.929688 430.636719 496.195312 430.863281 495.648438 431.316406 C 495.097656 431.773438 494.824219 432.304688 494.824219 432.917969 C 494.824219 433.476562 495.023438 433.960938 495.421875 434.371094 C 495.820312 434.777344 496.320312 435.082031 496.921875 435.277344 L 500.117188 436.164062 C 500.882812 436.390625 501.507812 436.789062 501.996094 437.355469 C 502.484375 437.925781 502.726562 438.640625 502.726562 439.5 C 502.726562 440.460938 502.316406 441.296875 501.5 442 C 500.683594 442.703125 499.5625 443.054688 498.144531 443.054688 C 496.996094 443.054688 495.992188 442.800781 495.125 442.285156 C 494.261719 441.773438 493.59375 441.121094 493.117188 440.324219 L 494.125 439.6875 C 494.558594 440.390625 495.148438 440.933594 495.886719 441.316406 C 496.628906 441.699219 497.371094 441.890625 498.113281 441.890625 C 499.253906 441.890625 500.109375 441.640625 500.683594 441.144531 C 501.257812 440.648438 501.546875 440.085938 501.546875 439.453125 C 501.546875 438.925781 501.378906 438.464844 501.042969 438.0625 C 500.707031 437.667969 500.234375 437.386719 499.636719 437.234375 L 496.640625 436.378906 C 495.769531 436.097656 495.058594 435.660156 494.496094 435.058594 C 493.9375 434.460938 493.660156 433.738281 493.660156 432.902344 C 493.660156 431.972656 494.042969 431.167969 494.808594 430.488281 C 495.574219 429.808594 496.589844 429.46875 497.851562 429.46875 C 498.8125 429.46875 499.667969 429.652344 500.414062 430.023438 C 501.15625 430.390625 501.761719 430.835938 502.230469 431.363281 Z M 482.328125 429.859375 L 482.328125 431.023438 L 475.730469 431.023438 L 475.730469 435.679688 L 480.773438 435.679688 L 480.773438 436.84375 L 475.730469 436.84375 L 475.730469 441.503906 L 482.328125 441.503906 L 482.328125 442.667969 L 474.566406 442.667969 L 474.566406 429.859375 Z M 462.097656 440.199219 L 462.96875 440.972656 C 462.9375 441.007812 462.90625 441.039062 462.875 441.066406 C 461.550781 442.390625 459.949219 443.054688 458.078125 443.054688 C 456.195312 443.054688 454.589844 442.390625 453.265625 441.066406 C 451.941406 439.742188 451.277344 438.136719 451.277344 436.253906 C 451.277344 434.382812 451.941406 432.78125 453.265625 431.457031 C 454.589844 430.132812 456.195312 429.46875 458.078125 429.46875 C 459.949219 429.46875 461.550781 430.132812 462.875 431.457031 C 462.925781 431.511719 462.972656 431.554688 463.015625 431.597656 L 462.175781 432.40625 C 462.132812 432.363281 462.09375 432.320312 462.050781 432.28125 C 460.953125 431.183594 459.628906 430.636719 458.078125 430.636719 C 456.515625 430.636719 455.183594 431.183594 454.085938 432.28125 C 452.992188 433.378906 452.441406 434.703125 452.441406 436.253906 C 452.441406 437.816406 452.992188 439.148438 454.085938 440.246094 C 455.183594 441.34375 456.515625 441.890625 458.078125 441.890625 C 459.628906 441.890625 460.953125 441.34375 462.050781 440.246094 C 462.0625 440.234375 462.078125 440.21875 462.097656 440.199219 M 439.632812 442.667969 L 438.46875 442.667969 L 438.46875 429.859375 L 439.632812 429.859375 Z M 427.492188 429.859375 L 422.820312 442.667969 L 421.921875 442.667969 L 417.246094 429.859375 L 418.488281 429.859375 L 422.371094 440.496094 L 426.253906 429.859375 Z M 403.277344 439.34375 C 402.808594 439.488281 402.320312 439.5625 401.800781 439.5625 L 398.492188 439.5625 L 398.492188 442.667969 L 397.328125 442.667969 L 397.328125 429.859375 L 401.800781 429.859375 C 403.136719 429.859375 404.277344 430.332031 405.222656 431.277344 C 406.171875 432.226562 406.644531 433.367188 406.644531 434.703125 C 406.644531 436.050781 406.171875 437.191406 405.230469 438.132812 C 404.941406 438.421875 404.640625 438.667969 404.332031 438.863281 L 406.273438 442.667969 L 404.96875 442.667969 Z M 401.800781 431.023438 L 398.492188 431.023438 L 398.492188 438.398438 L 401.800781 438.398438 C 402.816406 438.398438 403.683594 438.039062 404.402344 437.320312 C 405.121094 436.597656 405.480469 435.726562 405.480469 434.703125 C 405.480469 433.6875 405.121094 432.820312 404.402344 432.101562 C 403.683594 431.382812 402.816406 431.023438 401.800781 431.023438 M 385.6875 429.859375 L 385.6875 431.023438 L 379.089844 431.023438 L 379.089844 435.679688 L 384.132812 435.679688 L 384.132812 436.84375 L 379.089844 436.84375 L 379.089844 441.503906 L 385.6875 441.503906 L 385.6875 442.667969 L 377.925781 442.667969 L 377.925781 429.859375 Z M 336.398438 429.859375 L 336.398438 431.023438 L 329.796875 431.023438 L 329.796875 435.679688 L 334.84375 435.679688 L 334.84375 436.84375 L 329.796875 436.84375 L 329.796875 441.503906 L 336.398438 441.503906 L 336.398438 442.667969 L 328.632812 442.667969 L 328.632812 429.859375 Z M 312.921875 431.023438 L 309.226562 431.023438 L 309.226562 429.859375 L 317.765625 429.859375 L 317.765625 431.023438 L 314.089844 431.023438 L 314.089844 442.667969 L 312.921875 442.667969 Z M 299.277344 440.726562 L 290.707031 440.726562 L 289.804688 442.667969 L 288.519531 442.667969 L 294.496094 429.859375 L 295.488281 429.859375 L 301.480469 442.667969 L 300.175781 442.667969 Z M 298.734375 439.5625 L 294.992188 431.566406 L 291.25 439.5625 Z M 275.804688 431.023438 L 272.109375 431.023438 L 272.109375 429.859375 L 280.648438 429.859375 L 280.648438 431.023438 L 276.96875 431.023438 L 276.96875 442.667969 L 275.804688 442.667969 Z M 261.074219 432.03125 C 260.730469 431.648438 260.257812 431.320312 259.660156 431.046875 C 259.058594 430.773438 258.421875 430.636719 257.75 430.636719 C 256.828125 430.636719 256.09375 430.863281 255.546875 431.316406 C 254.996094 431.773438 254.722656 432.304688 254.722656 432.917969 C 254.722656 433.476562 254.921875 433.960938 255.320312 434.371094 C 255.71875 434.777344 256.21875 435.082031 256.816406 435.277344 L 260.015625 436.164062 C 260.78125 436.390625 261.410156 436.789062 261.894531 437.355469 C 262.382812 437.925781 262.625 438.640625 262.625 439.5 C 262.625 440.460938 262.214844 441.296875 261.398438 442 C 260.582031 442.703125 259.464844 443.054688 258.042969 443.054688 C 256.894531 443.054688 255.886719 442.800781 255.023438 442.285156 C 254.160156 441.773438 253.492188 441.121094 253.015625 440.324219 L 254.023438 439.6875 C 254.457031 440.390625 255.046875 440.933594 255.785156 441.316406 C 256.527344 441.699219 257.269531 441.890625 258.011719 441.890625 C 259.152344 441.890625 260.007812 441.640625 260.582031 441.144531 C 261.15625 440.648438 261.445312 440.085938 261.445312 439.453125 C 261.445312 438.925781 261.277344 438.464844 260.9375 438.0625 C 260.605469 437.667969 260.136719 437.386719 259.535156 437.234375 L 256.539062 436.378906 C 255.667969 436.097656 254.957031 435.660156 254.394531 435.058594 C 253.835938 434.460938 253.558594 433.738281 253.558594 432.902344 C 253.558594 431.972656 253.941406 431.167969 254.707031 430.488281 C 255.472656 429.808594 256.484375 429.46875 257.75 429.46875 C 258.710938 429.46875 259.566406 429.652344 260.3125 430.023438 C 261.054688 430.390625 261.660156 430.835938 262.128906 431.363281 Z M 207.296875 429.859375 L 208.460938 429.859375 L 208.460938 441.503906 L 214.671875 441.503906 L 214.671875 442.667969 L 207.296875 442.667969 Z M 194.097656 440.726562 L 185.53125 440.726562 L 184.628906 442.667969 L 183.339844 442.667969 L 189.316406 429.859375 L 190.308594 429.859375 L 196.304688 442.667969 L 195 442.667969 Z M 193.554688 439.5625 L 189.8125 431.566406 L 186.074219 439.5625 Z M 174.382812 429.859375 L 174.382812 431.023438 L 167.785156 431.023438 L 167.785156 435.679688 L 172.832031 435.679688 L 172.832031 436.84375 L 167.785156 436.84375 L 167.785156 441.503906 L 174.382812 441.503906 L 174.382812 442.667969 L 166.621094 442.667969 L 166.621094 429.859375 Z M 364.558594 432.03125 C 364.214844 431.648438 363.746094 431.320312 363.144531 431.046875 C 362.546875 430.773438 361.910156 430.636719 361.234375 430.636719 C 360.3125 430.636719 359.578125 430.863281 359.03125 431.316406 C 358.484375 431.773438 358.207031 432.304688 358.207031 432.917969 C 358.207031 433.476562 358.40625 433.960938 358.804688 434.371094 C 359.203125 434.777344 359.703125 435.082031 360.304688 435.277344 L 363.503906 436.164062 C 364.269531 436.390625 364.894531 436.789062 365.378906 437.355469 C 365.867188 437.925781 366.109375 438.640625 366.109375 439.5 C 366.109375 440.460938 365.703125 441.296875 364.882812 442 C 364.066406 442.703125 362.949219 443.054688 361.53125 443.054688 C 360.382812 443.054688 359.375 442.800781 358.511719 442.285156 C 357.648438 441.773438 356.976562 441.121094 356.5 440.324219 L 357.507812 439.6875 C 357.945312 440.390625 358.53125 440.933594 359.273438 441.316406 C 360.011719 441.699219 360.753906 441.890625 361.5 441.890625 C 362.636719 441.890625 363.496094 441.640625 364.070312 441.144531 C 364.644531 440.648438 364.929688 440.085938 364.929688 439.453125 C 364.929688 438.925781 364.761719 438.464844 364.425781 438.0625 C 364.089844 437.667969 363.621094 437.386719 363.019531 437.234375 L 360.023438 436.378906 C 359.15625 436.097656 358.441406 435.660156 357.882812 435.058594 C 357.324219 434.460938 357.042969 433.738281 357.042969 432.902344 C 357.042969 431.972656 357.425781 431.167969 358.191406 430.488281 C 358.957031 429.808594 359.972656 429.46875 361.234375 429.46875 C 362.199219 429.46875 363.050781 429.652344 363.796875 430.023438 C 364.542969 430.390625 365.148438 430.835938 365.613281 431.363281 Z M 242.226562 429.859375 L 242.226562 431.023438 L 235.628906 431.023438 L 235.628906 435.679688 L 240.671875 435.679688 L 240.671875 436.84375 L 235.628906 436.84375 L 235.628906 441.503906 L 242.226562 441.503906 L 242.226562 442.667969 L 234.464844 442.667969 L 234.464844 429.859375 Z M 151.21875 439.34375 C 150.753906 439.488281 150.261719 439.5625 149.746094 439.5625 L 146.4375 439.5625 L 146.4375 442.667969 L 145.273438 442.667969 L 145.273438 429.859375 L 149.746094 429.859375 C 151.082031 429.859375 152.222656 430.332031 153.167969 431.277344 C 154.117188 432.226562 154.589844 433.367188 154.589844 434.703125 C 154.589844 436.050781 154.117188 437.191406 153.175781 438.132812 C 152.886719 438.421875 152.585938 438.667969 152.277344 438.863281 L 154.214844 442.667969 L 152.914062 442.667969 Z M 149.746094 431.023438 L 146.4375 431.023438 L 146.4375 438.398438 L 149.746094 438.398438 C 150.761719 438.398438 151.625 438.039062 152.34375 437.320312 C 153.066406 436.597656 153.425781 435.726562 153.425781 434.703125 C 153.425781 433.6875 153.066406 432.820312 152.34375 432.101562 C 151.625 431.382812 150.761719 431.023438 149.746094 431.023438 "/>
</g>
</svg>
